<?xml version="1.0" encoding="UTF-8"?>
<svg id="Layer_2" data-name="Layer 2" xmlns="http://www.w3.org/2000/svg" viewBox="0 0 348.77 244.41">
  <defs>
    <style>
      .cls-1 {
        fill: #e9d842;
      }

      .cls-2 {
        fill: #4892cf;
      }

      .cls-3 {
        fill: #231f20;
      }

      .cls-4 {
        fill: #d54b78;
      }
    </style>
  </defs>
  <g id="Layer_2-2" data-name="Layer 2">
    <g>
      <polygon class="cls-3" points="55.04 105 45.7 71.49 28.53 76.28 11.36 81.06 20.7 114.57 0 120.34 7.52 147.33 28.22 141.56 52.7 217.51 66.79 213.58 80.88 209.65 62.56 131.99 83.26 126.22 75.74 99.24 55.04 105"/>
      <path class="cls-3" d="m184.84,81.64l34.29,5.87-23.37,105.32-23.9-4.09-3-13.75c-11.73,12.7-25.43,12.56-34.25,11.05-15.24-2.61-27.45-8.62-37-23-9.15-13.82-11.08-28.37-8.67-42.42,3.06-17.86,12.33-31.96,23.77-40.05s24.63-10.74,39.4-8.21c9.05,1.55,23.21,6.18,30.69,21.18l2.04-11.91Zm-55.04,25.14c-4.18,2.96-9.53,8.42-11.16,17.94-1.63,9.53,1.36,16.41,3.88,20.27,3.91,5.82,10.72,10.41,18.81,11.8,6.91,1.18,13.82-.58,19.12-4.33,5.26-3.51,10.21-9.53,11.76-18.58,1.3-7.62-.33-15.25-4.52-20.87-4.38-5.9-11.6-9.58-17.79-10.64-7.38-1.26-14.82.65-20.12,4.4Z"/>
      <path class="cls-3" d="m256.92,89.9l35.15,53.33,18.91-61.01,37.79-5.37-38.91,114.36-21.53,3.06-69.21-99,37.79-5.37Z"/>
      <rect class="cls-1" x="201.24" y="172.92" width="71.49" height="71.49" rx="35.75" ry="35.75"/>
      <rect class="cls-2" x="242.66" y="14.28" width="71.49" height="71.49" rx="35.75" ry="35.75"/>
      <rect class="cls-4" x="35.34" y="0" width="71.49" height="71.49" rx="35.75" ry="35.75"/>
    </g>
  </g>
</svg>