<?xml version="1.0" encoding="UTF-8"?>
<svg id="Layer_2" data-name="Layer 2" xmlns="http://www.w3.org/2000/svg" viewBox="0 0 179.85 151.77">
  <defs>
    <style>
      .cls-1 {
        stroke-width: 0px;
      }
    </style>
  </defs>
  <g id="Layer_1-2" data-name="Layer 1">
    <g>
      <path class="cls-1" d="m129.25,18.78v1.79h1.79v1.91h1.93v1.93h1.91v1.79h1.77v9.36h-1.73v1.91h-1.93v1.93h-1.91v1.81h-1.79v3.83h1.76v1.81h1.91v1.91h1.91v1.81h1.81v1.91h1.93v1.93h1.91v3.73h1.81v3.71h1.9v9.36h-1.86v3.83h-1.79v5.53h-1.93v5.63h-1.93v5.65h-1.79v3.73h-1.93v3.83h-1.93v3.71h-1.79v-1.87h-1.91v-1.83h-1.84l.02.02v-1.89h-1.94v1.89l.02-.02h-1.94v15.01l.02-.02h-1.84v1.83h-1.9v3.84h-1.92v3.7h-1.81v1.76h-1.9v-11.14h-1.82v-5.59h-1.9v3.71h-1.93v1.9h-1.79v1.79l.02-.02h-1.96v1.95h-1.9v1.93h-1.81v1.78h-1.93v1.93h-1.79v1.81h-1.93v1.9h-1.93v1.87h-3.7v-1.91h-1.93v-1.9h-1.81v-1.81h-1.9v-1.93h-1.81v-1.78h-1.93v-1.93h-1.9v-1.91h-1.79l.02.02v-1.84h-1.95v-1.9h-1.93v-3.67h-1.78v5.63h-1.94v11.1h-1.78v-1.8h-1.93v-3.7h-1.92v-3.84h-1.78v-1.79h-1.91l.02.02v-15.01h-1.94l.02.02v-1.89h-1.82v1.89l.02-.02h-1.92v1.79h-1.79v1.9h-1.93v-3.66h-1.91v-3.83h-1.81v-3.73h-1.91v-5.65h-1.93v-5.62h-1.81v-5.53h-1.91v-3.85h-1.79v-9.34h1.74v-3.71h1.93v-3.73h1.79v-1.93h1.93v-1.91h1.93v-1.81h1.79v-1.93h1.93v-1.79h1.9v-3.83h-1.87v-1.81h-1.91v-1.93h-1.81v-1.91h-1.9v-9.36h1.86v-1.81h1.81v-1.91h1.91v-1.91h1.95v-1.84l-.02.02h3.71v-1.91h1.79v-1.81h3.85v-1.91h3.73v-1.93h3.7v-1.81h5.64v-1.9h5.64v-1.91h22.41v1.87h5.64v1.9h5.64v1.81h3.7v1.93h3.85v1.91h3.73v1.81h1.91v1.95h3.75l-.02-.02Zm-28.22,48.72v-14.96h-3.7v1.89h-1.79v1.79h-1.93v1.93h-1.86v24.29h1.92v-3.7h1.91v-3.73h1.81v-1.91h1.91v-5.6h1.74Zm-13.07,14.95v-24.35h-1.9v-1.91h-1.81v-1.81h-1.91v-1.86h-3.66v14.98h1.92v5.64h1.79v1.93h1.93v3.7h1.79v3.67h1.87Zm26.3-50.58h-1.93v1.93h-1.79v1.81h-1.93v1.91h-1.86v3.73h1.89v1.85h7.44v-1.89h3.85v-1.81h3.71v-1.91h1.91v-1.93h1.81v-1.79h1.86v-9.36h-1.89v-1.86h-9.31v1.89h1.84v1.81h-1.89v1.93h-1.93v1.91h-1.79v1.79Zm-54.32,9.37h3.75v1.87h7.42v-1.9h1.86v-3.73h-1.9v-1.91h-1.81v-1.81h-1.91v-1.93h-1.81v-1.79h-1.93v-1.93h-1.91v-1.91h-1.74v-1.81h1.73v-1.86h-9.35v1.9h-1.74v9.36h1.78v1.79h1.93v1.93h1.79v1.93h3.83v1.79Z"/>
      <path class="cls-1" d="m117.98,138.72v1.79h-1.89v3.82h-1.81v1.81h-1.91v1.93h-1.81v1.91h-7.56v1.79h-26.24v-1.75h-7.44v-1.9h-1.93v-1.93h-1.79v-1.81h-1.93v-3.82h-1.93v-1.84l-.02.02h1.96v-7.53h1.9v1.91h1.81v1.91h1.93v1.75h1.73v-5.63h-1.73v-3.7h1.8v-3.73h1.9v-7.53h1.91l-.02-.02v3.88h1.83v1.79h1.93v1.93h1.91v1.81h1.81v1.91h1.93v1.93h1.79v1.79h1.91v1.86h3.73v-1.88h1.93v-1.81h1.91v-1.93h1.81v-1.91h1.93v-1.81h1.79v-1.93h1.93v-1.79h1.91v-3.83l-.02.02h1.84v7.57h1.9v3.73h1.87v3.7h-1.84v5.59h1.89v-1.79h1.81v-1.91h1.93v-1.87h1.78v7.53h1.91l-.02-.02Z"/>
      <path class="cls-1" d="m37.38,33.79h3.71v3.68h1.9v1.92h1.95v1.8h1.76v1.92h-1.74v1.9h-5.66v1.83l.02-.02h-3.73v1.94l.02-.02h-16.93l.02.02v-1.94h-3.73l.02.02v-1.82h-1.94l.02.02v-1.94h-1.94l.02.02v-1.94h-1.82l.02.02v-3.73h-1.94l.02.02v-18.73l-.02.02h1.94v-5.65l-.02.02h1.79v5.64h1.95l-.02-.02v3.73h1.94l-.02-.02v3.73h1.82l-.02-.02v3.85h1.94l-.02-.02v1.82h3.73l-.02-.02v1.94h3.73l-.02-.02v1.77h11.29v-1.77l-.02.02Z"/>
      <path class="cls-1" d="m140.55,46.86v-1.79h-5.62v-1.9h-1.9v-1.95h1.86v-1.78h1.8v-1.92h1.9v-3.73h3.75l-.02-.02v1.77h11.29v-1.77l-.02.02h3.73v-1.94l-.02.02h3.73v-1.82l-.02.02h1.94v-3.85l-.02.02h1.94v-3.73l-.02.02h1.82v-3.73l-.02.02h1.91v-5.64h1.95l-.02-.02v5.65h1.82l-.02-.02v18.73l.02-.02h-1.82v3.73l.02-.02h-1.94v1.94l.02-.02h-1.94v1.94l.02-.02h-1.82v1.82l.02-.02h-3.85v1.94l.02-.02h-16.81l.02.02v-1.94h-3.73l.02.02Z"/>
      <path class="cls-1" d="m13.05,18.8v-5.63h1.89v-1.91h1.81v-1.81h1.91v-1.93h1.93v-1.91h3.71v-1.79h3.73v-1.92h1.91v5.61h1.84s-.02-.02-.02-.02v3.73h1.94l-.02-.02v3.85h1.94l-.02-.02v3.73h1.82l-.02-.02v3.73h1.94l-.02-.02v3.71h1.78v5.62h-3.69c0,.69,0,1.33,0,1.96l.02-.02h-11.29l.02.02v-1.94h-3.73l.02.02v-1.82h-3.73l.02.02v-3.85h-1.94l.02.02v-3.73h-1.82l.02.02v-3.73h-1.94l.02.02Z"/>
      <path class="cls-1" d="m142.35,33.79v-1.91h-3.69v-5.62h1.9v-3.76l-.02.02h1.82v-3.73l-.02.02h1.94v-3.73l-.02.02h1.82v-3.85l-.02.02h1.94v-3.73l-.02.02h1.91V1.91h1.79v1.88h3.85v1.79h3.73v1.93h1.79v1.91h1.91v1.81h1.93v1.91h1.81v5.68l.02-.02h-1.82v3.73l.02-.02h-1.94v3.73l.02-.02h-1.94v3.85l.02-.02h-3.73v1.82l.02-.02h-3.73v1.94l.02-.02h-11.29l.02.02Z"/>
      <path class="cls-1" d="m125.54,99.38v3.71h1.79v3.71h1.93v3.73h1.79v3.85h1.93v5.62h1.9v9.36h-1.86v5.65h-1.93v1.79h-1.79v1.91h-1.93v1.8h-7.42v-1.77h-1.96l.02.02v-16.95h1.93v-3.71h1.79v-3.71l-.02.02h1.94v-15.01l-.02.02h1.94l-.02-.02Z"/>
      <path class="cls-1" d="m61.75,138.72h-1.8v1.78h-7.54v-1.76h-1.81v-1.91h-1.93v-1.81h-1.91v-5.65h-1.79v-9.34h1.76v-5.65h1.91v-3.83h1.91v-3.73h1.81v-3.71h1.95v-3.76l-.02.02h1.82l-.02-.02v15.01h1.94l-.02-.02v3.76h1.95v3.71h1.77v16.9l.02-.02Z"/>
      <path class="cls-1" d="m50.59,18.78h-3.83v1.8h-1.8v1.9h-1.92v1.91h-1.9v-1.9h-1.83s.02.02.02.02v-3.73h-1.94l.02.02v-3.73h-1.82l.02.02v-3.85h-1.94l.02.02v-3.73h-1.94s.02.02.02.02c0-2.49,0-4.99,0-7.52h16.89v1.86h3.7v1.93h1.93v3.7h1.78v5.64h-1.73v1.93h-1.93v1.79h-1.83c0,.69,0,1.33,0,1.96,0,0,.02-.02.02-.02Z"/>
      <path class="cls-1" d="m129.27,18.8v-1.91h-1.9v-1.79h-1.81v-1.93h-1.89v-5.64h1.85v-3.7h1.81v-1.93h3.7V0h16.93v7.52l.02-.02h-1.94v3.73l.02-.02h-1.82v3.85l.02-.02h-1.94v3.73l.02-.02h-1.82v3.73l.02-.02h-1.91v1.89h-1.9v-1.87h-1.82v-1.92h-1.9v-1.82c-1.29,0-2.52,0-3.75,0,0,0,.02.02.02.02Z"/>
      <path class="cls-1" d="m5.61,37.49h-1.91v-5.61h-1.91v-5.65H0v-13.06h1.76v-1.93h1.91v-1.81h1.93v-1.91h1.81v-1.93h1.91v-1.78h3.69v1.75h-1.85v5.62h-1.83c0,.7,0,1.33,0,1.96l.02-.02h-1.94v5.65l.02-.02h-1.82v18.73l.02-.02Z"/>
      <path class="cls-1" d="m170.53,13.16v-1.92h-1.91v-5.62h-1.9v-1.79h3.78v1.76h1.81v1.91h1.93v1.93h1.79v1.79h1.91v1.93h1.92v13.06h-1.87v5.65h-1.91v5.65h-1.84l.02.02v-18.73h-1.94l.02.02v-5.65h-1.82l.02.02Z"/>
      <path class="cls-1" d="m35.58,50.57v1.89h-18.8v-1.85h-1.81v-1.84l-.02.02h3.73l-.02-.02v1.82h16.93l-.02-.02Z"/>
      <path class="cls-1" d="m164.88,48.77v1.79h-1.89v1.89h-18.72v-1.88l-.02.02h16.81v-1.82l-.02.02h3.85l-.02-.02Z"/>
      <path class="cls-1" d="m174.23,37.49v3.72h-1.92l.02.02v-3.73l-.02.02h1.94l-.02-.02Z"/>
      <path class="cls-1" d="m144.27,50.57h-3.72v-1.8l-.02.02h3.73l-.02-.02v1.82l.02-.02Z"/>
      <path class="cls-1" d="m7.41,41.21h-1.8c0-1.26,0-2.49,0-3.72l-.02.02h1.82l-.02-.02v3.73l.02-.02Z"/>
      <path class="cls-1" d="m39.3,48.77v1.8c-1.26,0-2.49,0-3.72,0l.02.02v-1.82l-.02.02h3.73l-.02-.02Z"/>
      <path class="cls-1" d="m9.33,43.13h-1.92c0-.66,0-1.29,0-1.92l-.02.02h1.94l-.02-.02v1.94l.02-.02Z"/>
      <path class="cls-1" d="m170.51,43.13v1.92h-1.92l.02.02v-1.94l-.02.02h1.94l-.02-.02Z"/>
      <path class="cls-1" d="m140.55,48.77h-1.89v-1.9h1.89l-.02-.02v1.94l.02-.02Z"/>
      <path class="cls-1" d="m14.97,48.77h-1.92v-1.92l-.02.02h1.94l-.02-.02v1.94l.02-.02Z"/>
      <path class="cls-1" d="m172.31,41.21v1.92h-1.8l.02.02v-1.94l-.02.02h1.82l-.02-.02Z"/>
      <path class="cls-1" d="m11.13,45.05h-1.8c0-.66,0-1.29,0-1.92l-.02.02h1.82l-.02-.02v1.94l.02-.02Z"/>
      <path class="cls-1" d="m168.6,45.05v1.8h-1.92l.02.02v-1.82l-.02.02h1.94l-.02-.02Z"/>
      <path class="cls-1" d="m39.3,46.86h1.77v1.9h-1.77s.02.02.02.02v-1.94l-.02.02Z"/>
      <path class="cls-1" d="m166.68,46.85v1.92h-1.8l.02.02v-1.94l-.02.02h1.82l-.02-.02Z"/>
      <path class="cls-1" d="m13.05,46.85h-1.92v-1.8s-.02.02-.02.02h1.94l-.02-.02v1.82l.02-.02Z"/>
      <path class="cls-1" d="m116.06,37.48v1.91h-5.46v-1.88h1.74v-1.91h1.93v-1.81h1.79v-1.93h1.93v-1.79h1.91v-1.91h1.81v-1.92h5.63v5.58h-1.76v1.93h-1.91v1.81h-3.72v1.9h-3.87Z"/>
      <path class="cls-1" d="m52.41,31.88v-5.63h5.59v1.88h1.93v1.91h1.81v1.81h1.91v1.93h1.93v1.79h1.79v1.91h1.9v1.92h-5.58v-1.86h-3.73v-1.93h-3.82v-1.81h-1.81v-1.91h-1.9Z"/>
    </g>
  </g>
</svg>