<?xml version="1.0" encoding="UTF-8"?>
<svg id="Layer_2" data-name="Layer 2" xmlns="http://www.w3.org/2000/svg" viewBox="0 0 198.55 176" height="100" width="100">
  <defs>
    <style>
      .cls-1 {
      }
    </style>
  </defs>
  <g id="Layer_1-2" data-name="Layer 1">
    <g>
      <path class="cls-1" d="m52.38,24.3h-1.8v14.98h-1.91v28.07h-1.81v16.88h-7.57v-1.86h-1.91v-1.79h-1.77v-11.28h1.73v-1.91h1.93v-3.73h1.91v-29.99h1.81v-7.54h1.91v-1.79h1.93v-1.93h1.79v-1.81h1.93v-1.91h1.81v-1.93h1.91v-1.79h1.91v-1.93h3.73v-1.91h3.73v-1.81h3.71v-1.9h9.48v1.86h1.81v1.81h3.71v3.83h1.91v3.75h1.96l-.02-.02v3.73h1.82l-.02-.02v1.94h1.94l-.02-.02v1.82h1.94l-.02-.02v1.95h1.83v1.9h1.92v1.8h1.78v1.86h3.86v-1.9h1.78v-1.8h1.92v-1.9h1.9v-1.91l-.02.02h1.82v-1.82l-.02.02h1.94v-1.94l-.02.02h1.82v-3.73l-.02.02h1.92v-3.71h1.91v-3.85h3.73v-1.79h1.91v-1.89h9.36v1.85h3.71v1.81h3.73v1.91h3.73v1.93h1.91v1.79h1.91v1.93h1.81v1.91h1.93v1.81h1.91v1.93h1.81v1.79h1.93v7.57h1.79v29.97h1.91v3.73h1.93v1.91h1.78v11.28h-1.74v1.81h-1.93v1.88h-7.45v-16.86h-1.91v-28.05h-1.91v-15.03h-1.84s.02.02.02.02v-1.94h-1.94l.02.02v-1.82h-1.94l.02.02v-1.94h-1.82l.02.02v-1.94h-1.94l.02.02v-1.82h-3.73l.02.02v-1.94h-3.73l.02.02v-1.89h-7.57v1.89l.02-.02h-1.82v9.37l.02-.02h-1.91v5.63h-1.91v1.93h-1.81v1.79h-1.93v1.93h-1.91v1.93h-1.81v1.79h-1.93v1.93h-1.79v1.79h-1.91v1.93h-1.93v1.91h-1.81v1.8h-3.82v-1.75h-1.81v-1.91h-1.93v-1.93h-1.79v-1.81h-1.93v-1.91h-1.93v-1.81h-1.79v-1.91h-1.91v-1.93h-1.93v-1.79h-1.81v-1.93h-1.91v-5.67h-1.84s.02.02.02.02v-9.37h-1.94l.02.02v-1.89h-7.57v1.89l.02-.02h-3.73v1.94l.02-.02h-3.73v1.82l.02-.02h-1.94v1.94l.02-.02h-1.82v1.94l.02-.02h-1.94v1.82l.02-.02h-1.94v1.94l.02-.02Z"/>
      <path class="cls-1" d="m140.54,101.06h-1.92v1.9h-22.4v-1.88h1.74v-3.71h1.9v-28.07h-1.86v-3.71h-1.77v-3.85h3.64v-18.7h-5.56v-1.93h1.85v-1.81h1.81v-1.89h16.89v9.3h-5.56v14.98h7.48v1.93h1.81v1.91h1.93v1.81h1.77v1.93h-13v26.23h9.32v-20.55h1.91v1.76h1.81v1.91h1.91v1.91h1.93v15.03l.02-.02c-.64,0-1.28,0-1.92,0v-5.57h-1.88v5.56c.67,0,1.28,0,1.9,0-.01.61-.02,1.23-.04,1.84l.02-.02h-1.94v1.94l.02-.02h-1.82v1.82l.02-.02Zm1.8-15.03h1.87v-3.62h-1.87v3.62Z"/>
      <path class="cls-1" d="m52.38,95.56v-18.83h-1.79v-1.79h-1.9v-1.91h11.21v20.59h1.93v1.88h5.53v-1.86h1.88v-16.9h-1.85v-1.81h-1.81v-1.91h-1.93v-1.93h-1.79v-1.81h-1.93v-1.91h-1.93v-1.81h-1.79v-1.91h-1.91v-1.93h-1.93v-3.71h-1.78v-13.08h1.74v-3.82h1.91v1.89h1.96l-.02-.02v3.73h1.82l-.02-.02v1.94h1.94l-.02-.02v9.35h1.91v1.91h1.81v1.81h1.91v1.93h1.81v1.91h1.93v1.81h1.91v1.91h1.79v1.81h1.93v3.83h1.9v22.43h-1.85v1.93h-1.93v1.79h-1.81v1.92h-11.26v-1.9h-1.96l.02.02v-1.82h-1.82l.02.02v-1.94h-1.94l.02.02v-1.82h-1.94l.02.02Z"/>
      <path class="cls-1" d="m121.81,146.04v11.24h-24.42v-3.65h1.87v-3.73h1.91v-3.85h1.81v-3.71h1.93v-3.73h1.91v-3.71h1.79v-3.85h1.93v-3.71h1.81v-3.73h1.89v-9.36h-1.85v-1.89h-5.53v1.86h-1.91v7.44h-1.93v1.91h-1.81v1.93h-1.91v1.78h-1.89v-18.66h1.85v-1.91h1.93v-1.8h18.7v1.75h1.93v3.83h1.78v13.08h-1.73v3.73h-1.93v3.71h-1.93v3.85h-1.79v3.73h-1.93v3.71h-1.91v3.71h-1.78v5.63h9.28v-5.59h1.96l-.02-.02Zm-3.8-35.47v5.45h1.85v-5.45h-1.85Zm1.86,9.37h-1.84v1.73h1.84v-1.73Z"/>
      <path class="cls-1" d="m168.6,65.56h-3.71v-3.81h-1.91v-5.65h-1.79v-20.49h18.69v-1.96l-.02.02h3.73v-1.94l-.02.02h5.61v11.25h-1.86v3.73h-3.73v5.63h-1.79v7.54h-3.87v1.84l.02-.02h-5.65v1.94l.02-.02h-3.73v1.94l.02-.02Z"/>
      <path class="cls-1" d="m20.6,61.74v-1.8h-3.71v-7.54h-1.93v-5.65h-3.71v-3.71h-1.89v-11.29h5.6l-.02-.02v1.94h3.73l-.02-.02v1.91h18.69v20.49h-1.75v5.65h-1.91v3.85h-3.76l.02.02v-1.94h-3.73l.02.02v-1.94h-5.65l.02.02Z"/>
      <path class="cls-1" d="m56.22,43.03v-3.71h-1.91v-3.71h-1.93c0-3.81,0-7.56,0-11.31,0,0-.02.02-.02.02h1.94v-1.94l-.02.02h1.94v-1.82l-.02.02h1.82v-1.94l-.02.02h1.94v-1.94l-.02.02h3.73v-1.82l-.02.02h3.73v-1.94l-.02.02h7.57l-.02-.02v9.37h1.94s-.02-.02-.02-.02c0,1.22,0,2.43,0,3.71h-5.61v1.91h-3.85v1.93h-1.79v1.81h-1.93v1.91h-1.78v1.84h9.29v1.88h1.81v1.91h1.93v1.81h1.89v18.81h-9.4v-1.86h1.85v-13.08h-1.86v-1.93h-3.71v-5.62h1.86v-1.77h-3.69v13.03l.02-.02c-.64,0-1.29,0-1.93,0l.02.02v-1.94h-1.94l.02.02v-3.73h-1.82l.02.02Zm16.82,3.74v5.56h1.85v-5.56h-1.85Zm1.85,11.22v-1.86h-1.85v1.86h1.85Z"/>
      <path class="cls-1" d="m101.18,50.58h1.79v-1.9h11.26v11.19h-1.87v-1.84h-3.69v13.01h1.86v1.96l.02-.02h-1.89v1.94h1.89l-.02-.02v1.8h-1.88v18.82h1.88v3.73h1.79v1.81h1.91v1.88h-18.65v-1.84h1.75v-1.81h1.91v-3.73h1.92v-18.82h-1.88v-1.81h-1.89v-1.93h1.86v-1.91h1.9v-13.07h-3.78v1.86h-1.77v-9.31h1.76l-.02-.02v1.77h3.85v-1.77l-.02.02Zm11.12,3.68v-3.64h-1.73v3.64h1.73Z"/>
      <path class="cls-1" d="m82.32,72.99h-1.74v-1.89h-1.91v-3.71h-1.78v-5.64h3.65v1.85h1.8v-11.19h-1.75v1.84h-1.89v-5.57h14.92v5.56h-1.76v-1.85h-1.88v20.59h1.86v1.91h1.79v3.71h1.9v5.63h-3.65v-1.85h-1.92v16.83h1.88v-1.84h1.77v5.57h-14.92v-5.56h1.88v1.85h1.76v-26.25Zm3.92-9.31v11.2h1.73v-11.2h-1.73Zm0-11.28v7.48h1.73v-7.48h-1.73Z"/>
      <path class="cls-1" d="m159.25,20.58h-3.71v-1.89h-1.91v-1.93h-1.81v-1.79h-1.93v-1.93h-1.91v-3.73h-1.79v-3.71h1.74v-1.91h1.93v-1.93h1.91V0h22.45v1.75h3.71v1.91h3.83v1.93h1.8v3.7h-1.77v1.84s.02-.02.02-.02h-3.85v1.94l.02-.02h-3.73v1.94l.02-.02h-3.73v1.82l.02-.02h-5.65v1.94l.02-.02h-5.65v1.94l.02-.02Z"/>
      <path class="cls-1" d="m16.88,11.12v-1.79h-1.9v-3.7h1.88v-1.93h3.71v-1.93h3.73V0h22.55v1.74h1.79v1.93h1.93v1.91h1.78v3.73h-1.74v3.73h-1.93v1.91h-1.79v1.79h-1.93v1.93h-1.91v1.93c-1.29,0-2.53,0-3.76,0,0,0,.02.02.02.02v-1.94h-5.65l.02.02v-1.94h-5.65l.02.02v-1.82h-3.73l.02.02v-1.94h-3.73l.02.02v-1.94h-3.73l.02.02Z"/>
      <path class="cls-1" d="m114.26,161.02v1.93h1.91v1.91h1.81v1.79h1.91v-1.75h1.91v-1.9h1.81v1.85h1.9v3.73h-1.86v1.93h-1.81v1.79h-1.91v1.91h-7.57v1.8h-26.13v-1.75h-7.57v-1.91h-1.81v-1.81h-1.91v-1.91h-1.89v-3.73h1.85v-1.89h1.93v1.85h1.79v1.78h1.93v-1.74h1.81v-1.93h1.91v-1.91h1.91v-1.78h1.81v1.73h1.93v1.93h1.91v1.93h1.81v1.79h1.91v1.91h1.81v1.92h3.83v-1.87h1.81v-1.91h1.93v-1.81h1.91v-1.91h1.79v-1.93h1.93v-1.77h1.81v1.73h1.93Z"/>
      <path class="cls-1" d="m91.83,136.68v1.91h-1.88v14.98h3.67v1.93h1.89v1.78h-18.63v-1.74h1.76v-1.93h3.68v-15h-1.74v-1.91h-1.9v-1.81h1.87v-1.91h1.77v-9.36h-1.73v-1.91h-3.73v-1.81h-1.91v-1.93h-1.93v-1.91h-1.78v-1.81h5.58v-1.93h1.81v-1.79h1.91v-1.91h1.81v-1.93h1.91v-1.78h5.64v28h1.93v1.96l.02-.02h-1.89v1.82h1.89l-.02-.02Zm-5.59-28.03v7.36h1.73v-7.36h-1.73Zm0,11.27v3.64h1.73v-3.64h-1.73Z"/>
      <path class="cls-1" d="m54.3,159.26v-3.73h-1.91v-3.83h-1.78v-16.8h1.74v-3.82h1.93v1.86h1.91v1.91h1.81v1.81h1.91v1.93h1.93v1.91h1.81v1.81h1.91v1.93h1.81v1.79h1.91v1.91h1.93v1.93h1.79v1.81h1.92v9.34h-1.87v1.93h-1.79v1.9h-9.36v-1.86h-3.85v-3.73h-3.73Z"/>
      <path class="cls-1" d="m125.52,149.89h1.79v-1.91h1.93v-1.91h1.93v-1.81h1.79v-1.93h1.93v-1.79h1.93v-1.93h1.79v-1.91h1.91v-1.81h1.81v-1.91h1.93v-1.92h1.91v3.79h1.79v16.78h-1.76v3.85h-1.91v3.73h-3.73v3.71h-3.73v1.91h-9.46v-1.88h-1.81v-1.91h-1.9v-9.34h1.87v-1.83Z"/>
      <path class="cls-1" d="m146.16,95.56h1.8v-3.83h1.91v-1.78h7.43v9.3h-1.76v1.81h-1.91v1.91h-1.79v3.73h-1.93v3.83h-1.93v3.73h-1.79v3.73h-1.93v3.71h-1.91v3.83h-1.81v3.73h-1.91v3.73h-1.81v1.91h-1.93v1.81h-1.91v3.85h-1.81v1.79h-1.91v1.89h-1.9v-7.49h1.85v-5.65h1.93v-5.51h1.81v-3.85h1.91v-5.63h1.91v-3.73h1.81v-5.63h1.95v-5.68l-.02.02h1.82v-1.82l-.02.02h1.94v-1.94l-.02.02h1.94v-1.82l-.02.02Z"/>
      <path class="cls-1" d="m58,101.06v5.63h1.91v5.63h1.93v3.73h1.79v5.65h1.93v3.83h1.79v5.51h1.93v5.65h1.89v7.54h-1.85v-1.86h-1.93v-1.81h-1.79v-3.83h-1.91v-1.81h-1.81v-1.91h-1.93v-3.73h-1.91v-3.73h-1.81v-3.83h-1.93v-3.73h-1.91v-3.71h-1.79v-3.73h-1.93v-3.83h-1.81v-3.73h-1.91v-1.93h-1.93v-1.79h-1.78v-9.33h7.38v1.73h1.91v3.87h1.84l-.02-.02v1.82h1.94l-.02-.02v1.94h1.94l-.02-.02v1.82h1.82l-.02-.02Z"/>
      <path class="cls-1" d="m14.96,31.75v-1.79h-3.72v-1.92h-1.88v-11.27h1.87v-3.72h1.78v-1.93h3.87s-.02-.02-.02-.02v1.94h3.73l-.02-.02v1.94h3.73l-.02-.02v1.82h3.73l-.02-.02v1.94h5.65l-.02-.02v1.94h5.65s-.02-.02-.02-.02c0,3.69,0,7.38,0,11.14h-1.9v1.94c-6.29,0-12.51,0-18.73,0,0,0,.02.02.02.02v-1.94h-3.73l.02.02Z"/>
      <path class="cls-1" d="m179.88,33.65h-18.69v-1.89h-1.94v-11.18l-.02.02h5.65v-1.94l-.02.02h5.65v-1.94l-.02.02h3.73v-1.82l-.02.02h3.73v-1.94l-.02.02h3.85v-1.94s-.02.02-.02.02h3.71v1.91h1.8v3.7h1.9v11.29h-1.87v1.9h-3.74v1.83l.02-.02h-3.73v1.94l.02-.02Z"/>
      <path class="cls-1" d="m136.82,48.66v-14.98h-1.91v-1.91h-1.93v-1.81h-1.79v-1.93h-3.85v-1.91h-5.53v-3.75l-.02.02h1.82v-9.37l-.02.02h7.57l-.02-.02v1.94h3.73l-.02-.02v1.82h3.73l-.02-.02v1.94h1.94l-.02-.02v1.94h1.82l-.02-.02v1.82h1.94l-.02-.02v1.94h1.94s-.02-.02-.02-.02v11.26h-1.92v3.75l.02-.02h-1.94v3.73l.02-.02h-1.82v3.73l.02-.02h-1.91v1.92h-1.83l.02.02Z"/>
      <path class="cls-1" d="m29.94,65.56v3.71h-1.89v3.7h-1.81v1.93h-5.62v1.78h-11.27v-11.09h3.67v-1.93h1.91v-1.93c1.93,0,3.8,0,5.67,0,0,0-.02-.02-.02-.02v1.94h5.65l-.02-.02v1.94h3.73l-.02-.02Z"/>
      <path class="cls-1" d="m177.94,61.74h5.63v1.89h1.91v1.93h3.71v11.12h-11.23v-1.73h-5.62v-1.93h-1.81v-3.7h-1.93v-3.76l-.02.02h3.73v-1.94l-.02.02h5.65v-1.94l-.02.02Z"/>
      <path class="cls-1" d="m86.21,18.68v-5.64h3.72l-.02-.02v1.95h-1.88v1.78h3.83v1.92h1.78v1.86h3.72v-3.81l-.02.02h3.85l-.02-.02v3.8h3.74v-1.88h1.92v-1.94h3.66v-1.78h-1.88v-1.91l-.02.02h3.72v5.64l.02-.02h-1.82v3.73l.02-.02h-1.94v1.94l.02-.02h-1.82v1.82l.02-.02h-3.88v1.9h-7.42v-1.9h-3.71l.02.02v-1.82h-1.94l.02.02v-1.94h-1.94l.02.02v-3.73h-1.82l.02.02Z"/>
      <path class="cls-1" d="m3.66,56.1h3.72v-1.77h7.54v5.58h-1.88v1.81h-1.79v1.93h-3.84v11.24h-1.8v-1.85h-1.91v-1.93h-1.81v-1.79H0v-7.56h1.85v-3.72h1.81v-1.93Z"/>
      <path class="cls-1" d="m192.95,56.1v1.88h1.91v1.93h1.91v1.81h1.79v7.54h-1.76v1.81h-1.91v1.93h-1.93v1.88h-1.81v-11.22h-3.82v-1.93h-1.81v-1.79h-1.9v-5.63h5.58v1.78h3.75Z"/>
      <path class="cls-1" d="m144.24,39.31h1.89v13.03h-1.85v-1.75h-1.93v-1.91h-1.81v-1.96l-.02.02h1.82v-3.73l-.02.02h1.94v-3.73l-.02.02Z"/>
      <path class="cls-1" d="m104.92,14.96v-3.8h3.7v1.89l.02-.02h-1.83v1.92h-1.91l.02.02Z"/>
      <path class="cls-1" d="m89.92,13.04v-1.89h3.7v3.81l.02-.02h-1.83v-1.92h-1.91l.02.02Z"/>
      <path class="cls-1" d="m121.83,146.06v-5.48h1.75v5.46c-.59,0-1.18,0-1.77,0,0,0,.02.02.02.02Z"/>
      <path class="cls-1" d="m97.36,50.58v-1.89h3.82c0,.63,0,1.26,0,1.89l.02-.02h-3.85l.02.02Z"/>
      <path class="cls-1" d="m101.2,16.76v-1.8h3.72l-.02-.02v1.8h-3.72l.02.02Z"/>
      <path class="cls-1" d="m93.63,14.96h3.72v1.8s.02-.02.02-.02h-3.72v-1.8l-.02.02Z"/>
      <path class="cls-1" d="m136.81,48.64v1.89h-1.87v-1.87c.63,0,1.26,0,1.89,0,0,0-.02-.02-.02-.02Z"/>
      <path class="cls-1" d="m110.54,73.01h1.77v1.9h-1.77l.02.02v-1.94l-.02.02Z"/>
      <path class="cls-1" d="m61.84,48.66h1.77v1.87h-1.75c0-.63,0-1.26,0-1.89,0,0-.02.02-.02.02Z"/>
      <path class="cls-1" d="m91.83,134.9h1.77v1.78h-1.77l.02.02v-1.82l-.02.02Z"/>
    </g>
  </g>
</svg>